<?xml version="1.0" encoding="UTF-8"?><svg id="_レイヤー_2" xmlns="http://www.w3.org/2000/svg" viewBox="0 0 202.407 202.362"><defs><style>.cls-1{fill:#fff;stroke-width:0px;}</style></defs><g id="Logo"><path class="cls-1" d="m101.226,49.298c-28.719,0-51.883,23.164-51.883,51.883s23.164,51.883,51.883,51.883,51.883-23.164,51.883-51.883-23.164-51.883-51.883-51.883Zm0,85.614c-18.559,0-33.731-15.127-33.731-33.731s15.127-33.731,33.731-33.731,33.731,15.127,33.731,33.731-15.172,33.731-33.731,33.731h0Zm66.107-87.736c0,6.728-5.419,12.102-12.102,12.102-6.728,0-12.102-5.419-12.102-12.102s5.419-12.102,12.102-12.102,12.102,5.419,12.102,12.102Zm34.363,12.282c-.768-16.211-4.47-30.57-16.346-42.4-11.831-11.831-26.19-15.533-42.4-16.346C126.242-.237,76.165-.237,59.458.711c-16.165.768-30.525,4.47-42.4,16.301C5.182,28.843,1.524,43.202.711,59.413-.237,76.12-.237,126.197.711,142.904c.768,16.211,4.47,30.57,16.346,42.4,11.876,11.831,26.19,15.533,42.4,16.346,16.707.948,66.784.948,83.491,0,16.211-.768,30.57-4.47,42.4-16.346,11.831-11.831,15.533-26.19,16.346-42.4.948-16.707.948-66.739,0-83.446h0Zm-21.584,101.373c-3.522,8.85-10.34,15.669-19.236,19.236-13.321,5.283-44.929,4.064-59.65,4.064s-46.374,1.174-59.65-4.064c-8.85-3.522-15.669-10.34-19.236-19.236-5.283-13.321-4.064-44.929-4.064-59.65s-1.174-46.374,4.064-59.65c3.522-8.85,10.34-15.669,19.236-19.236,13.321-5.283,44.929-4.064,59.65-4.064s46.374-1.174,59.65,4.064c8.85,3.522,15.669,10.34,19.236,19.236,5.283,13.321,4.064,44.929,4.064,59.65s1.219,46.374-4.064,59.65Z"/></g></svg>