<?xml version="1.0" encoding="UTF-8"?>
<svg id="CMYK" xmlns="http://www.w3.org/2000/svg" version="1.1" viewBox="0 0 798.2 189.9">
  <!-- Generator: Adobe Illustrator 29.3.1, SVG Export Plug-In . SVG Version: 2.1.0 Build 151)  -->
  <defs>
    <style>
      .st0 {
        fill: #673fd5;
      }

      .st1 {
        fill: #fff;
      }
    </style>
  </defs>
  <polygon class="st1" points="285.1 102 326.2 74.2 310.5 74.2 285.1 102"/>
  <path class="st0" d="M789.6,16h0c-1.7,0-3.3.5-4.6,1.4l-25.4,16c-2.4,1.5-3.9,4.1-4,6.9l-13.4,58.5-18.9-46.5c-1.3-3.2-4.3-5.3-7.7-5.4l-37.2-1h-.2c-3,0-5.7,1.5-7.3,4.1s-1.7,5.9-.3,8.6l.9,1.7h-51.2l.3-.4,5.7-2.3c1.4-.6,2.6-1.5,3.5-2.6l10.9-13.8c1.2-1.5,1.9-3.4,1.9-5.4,0-4.7-3.8-8.6-8.6-8.6h-13.2c-2.8,0-5.4,1.4-7.1,3.7l-18.8,26.9c0,.2-.3.4-.4.6-2.1.4-4,1.5-5.3,3.2l-2.3,2.9h0l-37.9-41.2c-1.7-1.8-4-2.8-6.3-2.8s-3,.4-4.4,1.2l-99,59,10.9-21.2c1.4-2.7,1.3-5.9-.3-8.5-1.6-2.5-4.3-4.1-7.3-4.1s0,0-.1,0l-25.7.4c-2.8,0-5.5,1.5-7.1,3.9l-17.7,27-12.6-32.8c-1.2-3.2-4.3-5.4-7.7-5.5h-.3c-3.3,0-6.4,1.9-7.8,5l-5.5,11.8c-1.6-2.3-4.2-3.7-7.1-3.7h-53.8c-1.3,0-2.6.3-3.8.9-1.1-.6-2.4-.9-3.8-.9h-99.7l15.5-30.1c1.8-3.5,1-7.7-1.9-10.4-1.6-1.4-3.7-2.2-5.7-2.2s-3.3.5-4.8,1.4l-22.7,15.1c-1,.6-1.8,1.5-2.4,2.5l-35.5,54.6L102.2,5.5C101,2.3,98,.2,94.6,0h-.4C91,0,88,1.8,86.5,4.7L.9,171.5c-1.4,2.7-1.2,5.9.3,8.4,1.6,2.6,4.3,4.1,7.3,4.1h6.8c3.1,0,5.9-1.6,7.4-4.3l13.5-23.1,30.5-7.8c2.5-.6,4.5-2.3,5.6-4.6l23.1-48.5,8.8,43.3c.7,3.5,3.6,6.3,7.2,6.8l18.4,2.7c-1.1,2.7-.7,5.8,1,8.2l9.8,13.9c1.6,2.3,4.3,3.6,7,3.6s1.3,0,2-.2l73.6-17.7c1.8-.4,3.5-1.5,4.7-2.9l21.1-25.9c1.5-1.9,2.2-4.3,1.9-6.6.1,0,.2-.2.3-.2l16.6,18.2c1.7,1.8,4,2.8,6.4,2.8s3.5-.5,5-1.6l60.1-43-22.1,47.5c-1.9,4-.4,8.7,3.4,11l11.5,6.9c1.4.8,2.9,1.2,4.4,1.2,2.9,0,5.6-1.4,7.3-4l20.8-32.8,4,12.9c1,3.3,4,5.7,7.4,6l22.8,2.1h.4c-.5,1.3-.7,2.7-.5,4.2.5,3.8,3.4,6.8,7.2,7.3l92.7,14.7c.5,0,.9.1,1.4.1,2.5,0,4.9-1.1,6.5-3l11.6-13.4c0,.6.3,1.1.6,1.7,1.4,3,4.4,4.8,7.7,4.8h8.5c2.7,0,5.3-1.3,6.9-3.5l9.7-13.1,8.9-3.1c1.5-.5,2.9-1.5,3.9-2.7l25.9-32.2,18.3,12.9s0,0,.2,0l35.3,23.7c1.4,1,3.1,1.5,4.8,1.5s1.3,0,1.9-.2c2.3-.5,4.3-2,5.5-4l.9-1.6c1,2,2.8,3.5,4.9,4.2l18.9,6.4c.9.3,1.9.5,2.8.5,3.4,0,6.6-2,8-5.4l11.4-27.9,33.8,54c1.6,2.5,4.4,4,7.3,4s1,0,1.5-.1l18.1-3.2c3.9-.7,6.8-3.9,7.1-7.9l6.3-91.9,20.6-47.4c.3-.8.4-1.7.4-2.7,0-4.8-3.8-8.6-8.6-8.6h0ZM620.7,35.6h13.2l-11,13.9-7.9,3.3-7.1,9.8h-5.9l18.8-26.9h0ZM112.8,137.2l-14-68.4-34.2,71.7-34,8.7-15.3,26.2h-6.8L94.2,8.6l36.2,94.1,44.7-68.7,22.7-15.1-62.7,121.7-22.3-3.3h0ZM246.2,113.5h-57.6l-15.9,23.9,69.7-15.5-21.1,25.9-73.6,17.7-9.8-13.9,45.9-90.2h105.8l-7.3,8.6-78.4,12.2-6.6,9.5,66.2.7-17.3,21h0ZM206.2,122.1l-16.1,4.7,3.1-4.7h13ZM270.3,80.7l-3.2,3.9c-1.1-.5-2.2-.7-3.4-.7h-13c0,0,19.7-3.2,19.7-3.2h-.1ZM274.2,132.8l-18.7-20.6,41.7-50.8h53.8l4.2,13.3-81,58.1h0ZM499.9,165.4l-92.7-14.7,37.3-16.9,40.4,14.7,33.1-34.6-91.5,7.4-12.7-10-14.3,27.8-22.8-2.1-9.5-30.6-30.8,48.5-11.5-6.9,46.4-99.6,18.6,48.4,26.9-41,25.7-.4-23.6,45.8,3.4-.6,120.3-71.8,37.9,41.2-24,27-16.3-20,10.8-9.6-15.6-16.5-60.8,41.5,60.2-1.5,15.6,15.6-50.5,58.7h0v.2ZM408.3,140.8l8.4-16.3,4.5,3.6c1.5,1.2,3.4,1.8,5.3,1.8s.5,0,.7,0l6.3-.5-25.2,11.4h0ZM453,127.8l43.1-3.5-13.6,14.2-29.5-10.8h0ZM533.5,82.5l-30,.7,30.7-21,4.5,4.7-4.2,3.7c-3.5,3-3.9,8.3-1,11.8h0ZM557.6,136.3l-11.5,4-11.3,15.3h-8.5l69.6-88.8h17.5l-55.9,69.6h.1ZM648.8,139.1l-35.3-23.7-18.6-13.1,45.9,19.7,21.5-33.3-67.6,11.7,25.7-31.5h61.7v13.2l-33.4,57.1h0ZM621.7,104.4l22.7-3.9-6.9,10.7-15.8-6.8h0ZM789.6,33.2h0ZM789.6,24.6l-20.9,48.5-6.4,92.8-18.1,3.2-42.7-68.2-17.7,43.4-18.9-6.4,27.8-56-14.6-27.5,37.2,1,33.8,83.1,15-97.9,25.5-16.1h0Z"/>
  <polygon class="st1" points="625.3 89.3 663.1 76.9 634.6 76.9 625.3 89.3"/>
  <polygon class="st0" points="650 159.8 641.6 159.8 631.8 170.3 631.8 159.8 625.5 159.8 625.5 189.8 631.8 189.8 631.8 178.5 632.9 177.4 642.8 189.8 650.7 189.8 637.4 173 650 159.8"/>
  <path class="st0" d="M672,169.1l-.2.3c-.5.8-1,1.6-1.5,2.4-.2-.3-.3-.5-.5-.8l-.6-1c-.2-.3-.4-.6-.6-.9l-5.6-9.2h-7.5l11.4,17.7v12.2h6.3v-12.1l12.2-17.8h-7.6l-5.8,9.2h0Z"/>
  <path class="st0" d="M611.5,163h0c-.3-.3-.7-.6-1-.8-.4-.3-.7-.5-1.1-.7-.2-.1-.4-.2-.6-.3-.4-.2-.8-.4-1.3-.5-1.5-.6-3.2-.8-4.9-.8s-2.4.1-3.5.4c-2.5.6-4.8,2-6.5,3.9-2.6,2.8-4,6.7-4,11s1.8,9.2,5.1,11.9c0,.1.3.2.4.3.2.1.3.2.5.3,2.2,1.5,4.9,2.3,7.7,2.3s7.3-1.4,9.8-4c.4-.4.7-.8,1.1-1.3,2-2.7,3.1-6.2,3.1-10.1s-1.7-8.9-4.8-11.6h0ZM609.9,174.7c0,4.7-2.3,9.4-7.4,9.4s-7.4-4.9-7.4-9.1,2.3-9.5,7.4-9.5,7.4,4.7,7.4,9.1h0Z"/>
  <polygon class="st0" points="555.8 166.1 565.4 166.1 565.4 189.8 571.7 189.8 571.7 166.1 581.3 166.1 581.3 160.2 555.8 160.2 555.8 166.1"/>
  <path class="st0" d="M713.2,163h0c-.3-.3-.7-.6-1-.8-.4-.3-.7-.5-1.1-.7-.2-.1-.4-.2-.6-.3-.4-.2-.8-.4-1.3-.5-1.5-.6-3.2-.8-4.9-.8s-2.5.2-3.7.5c-2.5.7-4.7,2-6.4,3.8-.8.9-1.5,1.9-2.1,2.9-.3.6-.6,1.3-.9,2-.5,1.4-.8,2.9-1,4.5v3.2c0,.5,0,1,.2,1.5.4,2.2,1.2,4.2,2.3,5.9.4.6.8,1.1,1.3,1.6,2.5,2.7,6,4.2,9.9,4.2s7.3-1.4,9.8-4c2.7-2.8,4.2-6.7,4.2-11.4s-1.7-8.9-4.8-11.6h0ZM699.1,182.1c-1.5-1.6-2.4-4.2-2.4-7.1,0-4.7,2.3-9.5,7.4-9.5s4,.9,5.4,2.6c1.3,1.7,2,4.1,2,6.6,0,3.6-1.5,8.2-5.6,9.2-.6.1-1.2.2-1.8.2-1.2,0-2.3-.3-3.3-.8h0c0-.1-.3-.2-.4-.3,0,0-.2-.2-.3-.2-.2-.1-.3-.2-.4-.3,0-.1-.3-.2-.4-.4h-.2Z"/>
</svg>