<?xml version="1.0" encoding="UTF-8"?><svg id="CMYK" xmlns="http://www.w3.org/2000/svg" viewBox="0 0 798.21 189.927"><defs><style>.cls-1{fill:#fff;stroke-width:0px;}</style></defs><polygon class="cls-1" points="285.061 102.008 326.181 74.191 310.459 74.191 285.061 102.008"/><path class="cls-1" d="m789.609,15.969h-.011s-.009,0-.013,0c-.004,0-.008,0-.011,0-.005,0-.009,0-.014,0-.006,0-.011,0-.016,0-.004,0-.009,0-.014,0-.005,0-.009,0-.013,0-.003,0-.005,0-.008,0-1.694.019-3.27.527-4.594,1.391l-25.434,15.997c-2.394,1.506-3.895,4.093-4.015,6.919l-13.357,58.47-18.919-46.488c-1.286-3.161-4.32-5.263-7.732-5.357l-37.195-1.02c-.079-.002-.158-.003-.237-.003-2.97,0-5.738,1.534-7.31,4.068-1.613,2.601-1.723,5.863-.288,8.567l.9,1.695h-50.898c-.086,0-.172.001-.258.004l.294-.406,5.659-2.324c1.365-.561,2.563-1.463,3.479-2.621l10.923-13.81c1.204-1.48,1.926-3.368,1.926-5.425,0-4.744-3.839-8.591-8.581-8.602h-13.189c-2.813,0-5.448,1.375-7.057,3.683l-18.761,26.912c-.139.199-.269.403-.389.611-2.073.365-3.96,1.483-5.28,3.167l-2.274,2.903c-.011-.012-.021-.023-.032-.035l-37.903-41.188c-1.677-1.822-3.991-2.778-6.334-2.778-1.51,0-3.032.397-4.403,1.214l-98.953,59.015,10.9-21.171c1.384-2.689,1.255-5.907-.34-8.476-1.571-2.529-4.336-4.064-7.307-4.064-.047,0-.093,0-.139.001l-25.671.414c-2.848.046-5.489,1.499-7.052,3.88l-17.712,26.976-12.614-32.796c-1.239-3.221-4.283-5.39-7.731-5.509-.1-.003-.2-.005-.299-.005-3.333,0-6.378,1.93-7.794,4.966l-5.511,11.817c-1.58-2.259-4.189-3.673-7.051-3.673h-53.82c-1.325,0-2.613.305-3.775.873-1.135-.556-2.41-.869-3.758-.872h-.015s-.004,0-.005,0h-99.648l15.501-30.108c1.794-3.485,1.006-7.741-1.917-10.353-1.621-1.448-3.672-2.188-5.733-2.188-1.655,0-3.317.476-4.769,1.444l-22.72,15.142c-.973.648-1.803,1.488-2.44,2.468l-35.514,54.601L102.213,5.514c-1.218-3.166-4.182-5.321-7.569-5.502-.154-.008-.308-.012-.462-.012-3.212,0-6.174,1.795-7.652,4.675L.949,171.469c-1.368,2.667-1.25,5.854.313,8.411,1.563,2.558,4.344,4.118,7.341,4.118h6.84c3.061,0,5.892-1.627,7.433-4.272l13.451-23.09,30.462-7.762c2.475-.631,4.542-2.329,5.641-4.635l23.129-48.529,8.825,43.255c.724,3.548,3.592,6.263,7.174,6.791l18.366,2.707c-1.079,2.69-.735,5.766.957,8.163l9.794,13.874c1.635,2.316,4.274,3.642,7.027,3.642.669,0,1.344-.078,2.013-.239l73.575-17.709c1.832-.441,3.468-1.471,4.658-2.932l21.115-25.932c1.542-1.894,2.172-4.3,1.85-6.618.116-.076.229-.154.341-.235l16.564,18.167c1.686,1.849,4.013,2.807,6.361,2.807,1.743,0,3.496-.528,5.006-1.61l60.073-43.037-22.148,47.492c-1.861,3.99-.409,8.741,3.365,11.009l11.492,6.907c1.386.833,2.914,1.23,4.424,1.23,2.85,0,5.633-1.416,7.269-3.992l20.832-32.804,4.008,12.895c1.033,3.325,3.969,5.699,7.436,6.014l22.773,2.07c.148.013.295.023.442.029-.496,1.307-.677,2.743-.481,4.197.507,3.765,3.424,6.751,7.175,7.347l92.739,14.735c.451.072.902.107,1.351.107,2.483,0,4.872-1.076,6.52-2.992l11.563-13.44c.143.579.348,1.148.616,1.698,1.441,2.959,4.443,4.836,7.734,4.836h8.488c2.726,0,5.29-1.292,6.912-3.482l9.731-13.137,8.946-3.091c1.532-.529,2.884-1.481,3.899-2.745l25.868-32.223,18.339,12.928c.052.037.104.073.157.108l35.289,23.727c1.431.962,3.104,1.464,4.8,1.464.641,0,1.284-.072,1.919-.217,2.316-.53,4.309-1.994,5.508-4.046l.929-1.59c1.011,1.985,2.76,3.51,4.885,4.236l18.877,6.447c.919.314,1.857.463,2.78.463,3.406,0,6.611-2.036,7.965-5.355l11.383-27.904,33.833,53.999c1.591,2.539,4.361,4.035,7.288,4.035.498,0,1.001-.043,1.503-.132l18.127-3.212c3.889-.689,6.81-3.939,7.081-7.879l6.326-91.866,20.581-47.41c.278-.846.428-1.749.428-2.688,0-4.751-3.85-8.602-8.601-8.602Zm-168.926,19.658h13.169-.002l-10.992,13.898-7.922,3.254-7.073,9.761h-5.941l18.761-26.912ZM112.813,137.246l-13.962-68.436-34.186,71.728-33.956,8.653-15.266,26.205h-6.84L94.185,8.602l36.197,94.113,44.704-68.73,22.72-15.142-62.654,121.694-22.338-3.292Zm133.389-23.731h-57.573l-15.946,23.919,69.711-15.536-21.115,25.932-73.575,17.709-9.793-13.874,45.863-90.174h105.828-.002l-7.301,8.592-78.409,12.217-6.592,9.475,66.244.694-17.339,21.046Zm-39.956,8.602l-16.126,4.669,3.113-4.669h13.013Zm64.029-41.454l-3.24,3.945c-1.053-.468-2.208-.728-3.404-.741l-13.042-.137,19.686-3.067Zm3.901,52.185l-18.746-20.56,41.726-50.796h53.82l4.233,13.304-81.032,58.053Zm225.759,32.589l-92.739-14.735,37.306-16.907,40.39,14.735,33.118-34.624-91.485,7.351-12.721-10.006-14.317,27.807-22.773-2.07-9.523-30.64-30.794,48.49-11.492-6.907,46.426-99.55,18.632,48.444,26.913-40.991,25.671-.414-23.593,45.825,3.357-.571,120.343-71.772,37.903,41.188-23.972,27.02-16.337-19.96,10.83-9.556-15.645-16.529-60.773,41.522,60.172-1.47,15.645,15.57-50.544,58.749Zm-91.649-24.674l8.395-16.306,4.526,3.56c1.521,1.197,3.396,1.841,5.318,1.841.229,0,.459-.009.689-.028l6.312-.507-25.241,11.439Zm44.762-13.008l43.125-3.465-13.613,14.232-29.512-10.767Zm80.501-45.211l-30.011.733,30.693-20.97,4.478,4.731-4.15,3.662c-3.451,3.046-3.891,8.264-1.01,11.843Zm24.088,53.757l-11.464,3.961-11.317,15.278h-8.488l69.598-88.837h17.543-.002l-55.872,69.599Zm91.16,2.786l-35.289-23.727-18.572-13.093,45.902,19.679,21.546-33.315-67.62,11.711,25.665-31.532h61.742v13.155l-33.375,57.121Zm-27.053-34.687l22.746-3.939-6.932,10.719-15.814-6.779Zm167.864-71.227h.002-.002Zm0-8.602l-20.923,48.55-6.392,92.823-18.127,3.212-42.746-68.226-17.724,43.449-18.877-6.447,27.782-55.99-14.574-27.462,37.195,1.021,33.813,83.087,15.025-97.949,25.547-16.068h.002-.002Z"/><polygon class="cls-1" points="625.253 89.255 663.075 76.874 634.642 76.874 625.253 89.255"/><polygon class="cls-1" points="650.039 159.849 641.623 159.849 631.833 170.341 631.833 159.849 625.508 159.849 625.508 189.792 631.833 189.792 631.833 178.48 632.928 177.373 642.756 189.792 650.673 189.792 637.392 173.049 650.039 159.849"/><path class="cls-1" d="m672.039,169.074l-.203.316c-.536.836-1.032,1.619-1.512,2.391-.16-.261-.323-.527-.491-.801l-.636-1.037c-.176-.288-.358-.587-.555-.914l-5.636-9.181h-7.502l11.446,17.714v12.229h6.325v-12.135l12.196-17.808h-7.63l-5.803,9.225Z"/><path class="cls-1" d="m611.547,162.992h0c-.333-.294-.686-.574-1.05-.832-.365-.259-.748-.501-1.135-.718-.196-.11-.396-.215-.598-.315-.405-.199-.827-.38-1.254-.537-1.524-.56-3.171-.844-4.897-.844-1.214,0-2.408.147-3.55.438-2.521.642-4.774,1.983-6.518,3.879-2.561,2.784-3.971,6.706-3.971,11.044,0,4.942,1.82,9.155,5.124,11.862.144.118.292.233.442.346.15.112.301.221.455.325,2.196,1.496,4.863,2.286,7.714,2.286,3.817,0,7.31-1.419,9.835-3.997.372-.38.737-.804,1.085-1.262,2.019-2.657,3.086-6.151,3.086-10.102,0-4.751-1.693-8.861-4.767-11.574Zm-1.694,11.709c0,4.683-2.302,9.409-7.443,9.409-5.444,0-7.376-4.886-7.376-9.07,0-4.717,2.302-9.477,7.444-9.477,5.068,0,7.376,4.737,7.376,9.138Z"/><polygon class="cls-1" points="555.805 166.072 565.36 166.072 565.36 189.792 571.685 189.792 571.685 166.072 581.309 166.072 581.309 160.154 555.805 160.154 555.805 166.072"/><path class="cls-1" d="m713.204,162.992h0c-.335-.296-.688-.575-1.05-.832-.365-.259-.748-.501-1.135-.718-.196-.11-.396-.215-.598-.315-.405-.199-.827-.38-1.254-.537-1.524-.56-3.171-.844-4.896-.844-1.251,0-2.487.159-3.672.473-2.473.654-4.684,1.983-6.397,3.845-.799.869-1.496,1.86-2.069,2.945-.339.641-.637,1.322-.888,2.023-.502,1.404-.822,2.912-.951,4.484-.043.523-.064,1.059-.064,1.593,0,.53.021,1.06.064,1.575.041.511.105,1.021.189,1.518.375,2.22,1.151,4.22,2.308,5.944.382.57.81,1.112,1.271,1.612,2.485,2.689,6.001,4.17,9.902,4.17,3.817,0,7.31-1.419,9.836-3.997,2.728-2.785,4.171-6.715,4.171-11.364,0-4.751-1.693-8.861-4.767-11.574Zm-14.079,19.105c-1.547-1.629-2.434-4.202-2.434-7.057,0-4.717,2.302-9.477,7.443-9.477,2.228,0,4.029.869,5.354,2.582,1.285,1.661,2.021,4.051,2.021,6.556,0,3.614-1.477,8.192-5.641,9.203-.564.137-1.17.206-1.802.206-1.224,0-2.329-.253-3.292-.757l-.068-.038c-.149-.08-.292-.167-.432-.258-.116-.075-.228-.154-.337-.235-.159-.119-.295-.23-.417-.338-.124-.11-.253-.237-.396-.387Z"/></svg>